<svg width="131" height="130" viewBox="0 0 131 130" fill="none" xmlns="http://www.w3.org/2000/svg">
<mask id="mask0_860_17430" style="mask-type:luminance" maskUnits="userSpaceOnUse" x="12" y="28" width="110" height="63">
<path fill-rule="evenodd" clip-rule="evenodd" d="M39.4397 39.4137H25.4962C23.6844 39.4137 22.2025 40.9005 22.2025 42.718C22.2025 44.5356 23.6844 46.0223 25.4962 46.0223H32.5922H34.6718C36.4836 46.0223 37.9655 47.5095 37.9655 49.3271C37.9655 50.2354 37.5942 51.0633 36.997 51.66C36.4022 52.2596 35.5767 52.6319 34.6718 52.6319H30.2352H27.7858H15.8347C14.0229 52.6319 12.541 54.1191 12.541 55.9362C12.541 57.7533 14.0229 59.2405 15.8347 59.2405H24.3905C21.8076 65.3304 20.3772 72.031 20.3772 79.0682C20.3772 81.6212 20.566 84.1304 20.9282 86.5823C21.0794 87.6066 21.2619 88.6224 21.4753 89.627C27.6895 88.6734 34.2812 87.9062 41.1629 87.3466L41.6806 87.8205L42.168 87.2676C50.4357 86.6222 59.1133 86.2784 68.0635 86.2784C87.0792 86.2784 104.874 87.8291 120.088 90.5257C120.675 87.9751 121.07 85.3508 121.257 82.6678C121.342 81.4782 121.384 80.2776 121.384 79.0682C121.384 51.0831 98.7741 28.3984 70.8809 28.3984C58.9929 28.3984 48.0667 32.5195 39.4397 39.4137Z" fill="white"/>
</mask>
<g mask="url(#mask0_860_17430)">
<path fill-rule="evenodd" clip-rule="evenodd" d="M10.1328 92.9335H123.792V25.9902H10.1328V92.9335Z" fill="#F1F2F7"/>
</g>
<mask id="mask1_860_17430" style="mask-type:luminance" maskUnits="userSpaceOnUse" x="0" y="52" width="10" height="8">
<path fill-rule="evenodd" clip-rule="evenodd" d="M3.83609 52.4775C2.00117 52.4775 0.5 53.9951 0.5 55.8488C0.5 57.7025 2.00117 59.22 3.83609 59.22H5.83235C7.66775 59.22 9.16891 57.7025 9.16891 55.8488C9.16891 53.9951 7.66775 52.4775 5.83235 52.4775H3.83609Z" fill="white"/>
</mask>
<g mask="url(#mask1_860_17430)">
<path fill-rule="evenodd" clip-rule="evenodd" d="M-1.9082 61.6284H11.5768V50.0698H-1.9082V61.6284Z" fill="#F1F2F7"/>
</g>
<mask id="mask2_860_17430" style="mask-type:luminance" maskUnits="userSpaceOnUse" x="21" y="86" width="110" height="44">
<path fill-rule="evenodd" clip-rule="evenodd" d="M42.0946 87.3335L41.6067 87.8831L41.089 87.412C34.2093 87.9683 27.6195 88.7297 21.4062 89.678C26.2469 112.449 46.5225 129.535 70.7998 129.535C82.1672 129.535 92.6561 125.787 101.097 119.465H110.083C111.893 119.465 113.375 117.987 113.375 116.182C113.375 115.28 113.004 114.457 112.407 113.864C111.812 113.268 110.986 112.898 110.083 112.898H106.175C104.363 112.898 102.882 111.421 102.882 109.615C102.882 108.713 103.253 107.889 103.85 107.296C104.445 106.7 105.27 106.331 106.175 106.331H127.208C129.019 106.331 130.501 104.853 130.501 103.047C130.501 102.145 130.129 101.322 129.533 100.729C128.935 100.133 128.114 99.7633 127.208 99.7633H116.894C118.212 96.8366 119.257 93.763 119.996 90.5714C104.785 87.8922 86.9948 86.3506 67.9834 86.3506C59.0356 86.3506 50.3595 86.692 42.0946 87.3335Z" fill="white"/>
</mask>
<g mask="url(#mask2_860_17430)">
<path fill-rule="evenodd" clip-rule="evenodd" d="M18.998 131.943H132.908V83.9424H18.998V131.943Z" fill="#E8EBF2"/>
</g>
<mask id="mask3_860_17430" style="mask-type:luminance" maskUnits="userSpaceOnUse" x="41" y="80" width="80" height="11">
<path fill-rule="evenodd" clip-rule="evenodd" d="M111.163 86.8194L106.078 82.1589L100.637 86.1976L98.3559 83.0552L89.3518 86.1976L68.6095 83.0552L56.5525 86.384C60.2392 86.2607 63.9851 86.1976 67.7806 86.1976C86.7709 86.1976 104.542 87.7778 119.737 90.5258C120.321 87.9261 120.717 85.2523 120.903 82.5182L119.182 80.4121L111.163 86.8194ZM41.9199 87.2057C46.6705 86.8271 51.5564 86.5507 56.5526 86.384L47.6457 80.572L41.9199 87.2057Z" fill="white"/>
</mask>
<g mask="url(#mask3_860_17430)">
<path fill-rule="evenodd" clip-rule="evenodd" d="M39.5117 92.9337H123.311V78.0039H39.5117V92.9337Z" fill="#E0E2EE"/>
</g>
<mask id="mask4_860_17430" style="mask-type:luminance" maskUnits="userSpaceOnUse" x="40" y="87" width="2" height="1">
<path fill-rule="evenodd" clip-rule="evenodd" d="M40.9551 87.2227L41.4511 87.6354L41.9183 87.1533C41.5966 87.1745 41.2744 87.1976 40.9551 87.2227Z" fill="white"/>
</mask>
<g mask="url(#mask4_860_17430)">
<path fill-rule="evenodd" clip-rule="evenodd" d="M38.5469 90.0433H44.3262V84.7456H38.5469V90.0433Z" fill="#F1F2F7"/>
</g>
<mask id="mask5_860_17430" style="mask-type:luminance" maskUnits="userSpaceOnUse" x="20" y="78" width="21" height="12">
<path fill-rule="evenodd" clip-rule="evenodd" d="M20.7285 86.5118C20.8797 87.5381 21.0623 88.5552 21.2747 89.5613C27.4869 88.6063 34.0767 87.8381 40.956 87.2775L31.3763 78.4844L20.7285 86.5118Z" fill="white"/>
</mask>
<g mask="url(#mask5_860_17430)">
<path fill-rule="evenodd" clip-rule="evenodd" d="M18.3203 91.9697H43.3638V76.0767H18.3203V91.9697Z" fill="#E0E2EE"/>
</g>
<mask id="mask6_860_17430" style="mask-type:luminance" maskUnits="userSpaceOnUse" x="52" y="105" width="39" height="4">
<path fill-rule="evenodd" clip-rule="evenodd" d="M52.8594 107.004C52.8594 107.934 61.2687 108.69 71.6425 108.69C82.0158 108.69 90.4252 107.934 90.4252 107.004C90.4252 106.074 82.0158 105.318 71.6425 105.318C61.2687 105.318 52.8594 106.074 52.8594 107.004Z" fill="white"/>
</mask>
<g mask="url(#mask6_860_17430)">
<path fill-rule="evenodd" clip-rule="evenodd" d="M50.4512 111.098H92.8325V102.911H50.4512V111.098Z" fill="#D8DBEA"/>
</g>
<mask id="mask7_860_17430" style="mask-type:luminance" maskUnits="userSpaceOnUse" x="116" y="112" width="8" height="8">
<path fill-rule="evenodd" clip-rule="evenodd" d="M116.566 116.051C116.566 117.905 118.083 119.422 119.938 119.422C121.792 119.422 123.309 117.905 123.309 116.051C123.309 114.197 121.792 112.68 119.938 112.68C118.083 112.68 116.566 114.197 116.566 116.051Z" fill="white"/>
</mask>
<g mask="url(#mask7_860_17430)">
<path fill-rule="evenodd" clip-rule="evenodd" d="M114.16 121.83H125.719V110.271H114.16V121.83Z" fill="#E1E3EF"/>
</g>
<path fill-rule="evenodd" clip-rule="evenodd" d="M71.1443 66.0746C69.5761 66.0746 68.3047 64.8032 68.3047 63.2351C68.3047 61.6675 69.5761 60.3965 71.1443 60.3965C72.7124 60.3965 73.9838 61.6675 73.9838 63.2351C73.9838 64.8032 72.7124 66.0746 71.1443 66.0746ZM71.1441 59.2207C68.9267 59.2207 67.1289 61.0181 67.1289 63.2354C67.1289 65.4537 68.9267 67.251 71.1441 67.251C73.3614 67.251 75.1597 65.4537 75.1597 63.2354C75.1597 61.0181 73.3614 59.2207 71.1441 59.2207Z" fill="#D8DBEA"/>
<path fill-rule="evenodd" clip-rule="evenodd" d="M82.0282 100.88H60.2649C58.0977 100.88 56.3398 99.1226 56.3398 96.9549V76.9413C56.3398 69.1272 62.7336 62.7339 70.5472 62.7339H71.7455C79.56 62.7339 85.9529 69.1272 85.9529 76.9413V96.9549C85.9529 99.1226 84.196 100.88 82.0282 100.88Z" fill="#D8DBEA"/>
<path fill-rule="evenodd" clip-rule="evenodd" d="M87.7365 96.1113H87.5236C86.6596 96.1113 85.9531 95.4043 85.9531 94.5408V83.3772C85.9531 82.5132 86.6596 81.8066 87.5236 81.8066H89.6528C90.5163 81.8066 91.2229 82.5132 91.2229 83.3772V92.6245C91.2229 94.5422 89.6538 96.1113 87.7365 96.1113Z" fill="url(#paint0_linear_860_17430)"/>
<path fill-rule="evenodd" clip-rule="evenodd" d="M54.7685 96.1113H54.5557C52.6374 96.1113 51.0684 94.5422 51.0684 92.6245V83.3772C51.0684 82.5132 51.7749 81.8066 52.6389 81.8066H54.7685C55.6321 81.8066 56.3386 82.5132 56.3386 83.3772V94.5408C56.3386 95.4043 55.6321 96.1113 54.7685 96.1113Z" fill="url(#paint1_linear_860_17430)"/>
<path fill-rule="evenodd" clip-rule="evenodd" d="M80.4305 95.478L70.8942 98.4958L61.3574 95.478V88.959H80.4305V95.478Z" fill="#BEC0D6"/>
<path fill-rule="evenodd" clip-rule="evenodd" d="M65.217 97.2127L64.7696 97.6587C64.3978 98.029 63.7958 98.029 63.4235 97.6587L62.9766 97.2127V93.0435H65.217V97.2127Z" fill="url(#paint2_linear_860_17430)"/>
<path fill-rule="evenodd" clip-rule="evenodd" d="M64.5485 96.4786C64.5485 96.729 64.3457 96.9313 64.0958 96.9313C63.8453 96.9313 63.6426 96.729 63.6426 96.4786C63.6426 96.2282 63.8453 96.0259 64.0958 96.0259C64.3457 96.0259 64.5485 96.2282 64.5485 96.4786Z" fill="#F7FFF6"/>
<path fill-rule="evenodd" clip-rule="evenodd" d="M78.0158 97.2127L77.5684 97.6587C77.1966 98.029 76.5946 98.029 76.2223 97.6587L75.7754 97.2127V93.0435H78.0158V97.2127Z" fill="url(#paint3_linear_860_17430)"/>
<path fill-rule="evenodd" clip-rule="evenodd" d="M77.3493 96.4786C77.3493 96.729 77.1465 96.9313 76.8966 96.9313C76.6461 96.9313 76.4434 96.729 76.4434 96.4786C76.4434 96.2282 76.6461 96.0259 76.8966 96.0259C77.1465 96.0259 77.3493 96.2282 77.3493 96.4786Z" fill="#F7FFF6"/>
<path fill-rule="evenodd" clip-rule="evenodd" d="M84.5295 77.6758V79.7987V84.2059L59.3906 72.1657C61.0618 67.8939 65.2378 64.8525 70.0813 64.8525H72.2095C78.5234 64.8525 84.5295 71.3566 84.5295 77.6758Z" fill="white"/>
<path fill-rule="evenodd" clip-rule="evenodd" d="M59.3906 78.7855V76.6626V72.2554L84.5295 84.296C82.8588 88.5674 78.6828 91.6087 73.8388 91.6087H71.7111C65.3967 91.6087 59.3906 85.1046 59.3906 78.7855Z" fill="url(#paint4_linear_860_17430)"/>
<path d="M79.2332 20.6924C62.5502 22.1046 56.4186 36.2257 61.4417 44.457C64.9861 50.2646 70.9922 58.1134 82.188 56.2308C93.3834 54.3476 94.3267 43.9866 88.4306 42.5772C82.5344 41.1683 61.5294 47.7413 63.9033 62.926C65.6169 73.8822 80.4701 77.0403 80.4701 77.0403" stroke="#D7DAE9" stroke-width="0.963213" stroke-dasharray="3.37"/>
<path fill-rule="evenodd" clip-rule="evenodd" d="M88.8749 12.0234C88.8749 12.0234 91.2655 5.77869 91.5175 3.34943C91.65 2.08007 89.5465 -1.45412 87.0846 1.815C84.6227 5.08412 85.7459 9.09248 88.8749 12.0234Z" fill="#D8DBEA"/>
<path fill-rule="evenodd" clip-rule="evenodd" d="M80.3927 5.22249C77.5921 4.27543 76.3244 5.01383 75.7842 6.4877C75.2436 7.96205 75.9982 10.7684 80.2221 11.4081C84.4465 12.0478 88.6342 12.0233 88.6342 12.0233C88.6342 12.0233 83.1932 6.16956 80.3927 5.22249Z" fill="#D8DBEA"/>
<path fill-rule="evenodd" clip-rule="evenodd" d="M88.4011 13.2606C88.4646 12.9996 88.5487 12.7494 88.6424 12.5049C88.1254 12.5865 87.5993 12.7013 87.0698 12.8566C86.4955 13.0246 85.9593 13.245 85.4552 13.4976C85.2364 13.9111 85.0591 14.3529 84.944 14.8273C84.2344 17.7478 85.9097 20.6915 88.7246 21.6554C89.0294 21.595 89.3357 21.5251 89.6425 21.4354C90.4997 21.1843 91.2905 20.852 92.0053 20.4668C89.2564 19.2607 87.6743 16.251 88.4011 13.2606Z" fill="#D8DBEA"/>
<path fill-rule="evenodd" clip-rule="evenodd" d="M84.3814 14.7837C84.4486 14.4952 84.5399 14.2193 84.641 13.9497C82.2057 15.5098 80.842 17.9312 81.0668 19.3432C79.5107 20.012 78.5195 20.5754 78.5195 20.5754C78.5195 20.5754 79.6937 20.4861 81.4046 20.1572C82.321 21.4964 84.8612 22.393 87.6701 22.0715C85.1256 20.7556 83.6894 17.7612 84.3814 14.7837Z" fill="#D8DBEA"/>
<path fill-rule="evenodd" clip-rule="evenodd" d="M92.4484 15.8425C91.8033 15.6876 91.4034 15.0396 91.5587 14.3906C91.7135 13.746 92.3656 13.3466 93.0102 13.5014C93.6583 13.6572 94.0542 14.3077 93.8999 14.9528C93.7441 15.6013 93.097 15.9978 92.4484 15.8425ZM95.2747 14.9754C94.7555 13.1772 92.3685 12.2485 89.5525 12.5665C89.4348 12.8452 89.3347 13.1391 89.2632 13.4436C88.6361 16.1128 90.0846 18.7977 92.541 19.729C94.5907 18.425 95.7417 16.5786 95.2747 14.9754Z" fill="#D8DBEA"/>
<defs>
<linearGradient id="paint0_linear_860_17430" x1="88.588" y1="74.6543" x2="79.3079" y2="78.073" gradientUnits="userSpaceOnUse">
<stop stop-color="#3300C9"/>
<stop offset="1" stop-color="#2F234F" stop-opacity="0.5"/>
</linearGradient>
<linearGradient id="paint1_linear_860_17430" x1="53.7035" y1="74.6543" x2="44.4228" y2="78.0736" gradientUnits="userSpaceOnUse">
<stop stop-color="#3300C9"/>
<stop offset="1" stop-color="#2F234F" stop-opacity="0.5"/>
</linearGradient>
<linearGradient id="paint2_linear_860_17430" x1="64.0968" y1="90.597" x2="60.3925" y2="92.2931" gradientUnits="userSpaceOnUse">
<stop stop-color="#3300C9"/>
<stop offset="1" stop-color="#2F234F" stop-opacity="0.5"/>
</linearGradient>
<linearGradient id="paint3_linear_860_17430" x1="76.8956" y1="90.597" x2="73.1914" y2="92.2931" gradientUnits="userSpaceOnUse">
<stop stop-color="#3300C9"/>
<stop offset="1" stop-color="#2F234F" stop-opacity="0.5"/>
</linearGradient>
<linearGradient id="paint4_linear_860_17430" x1="71.9601" y1="62.5787" x2="53.2503" y2="86.8816" gradientUnits="userSpaceOnUse">
<stop stop-color="#3300C9"/>
<stop offset="1" stop-color="#2F234F" stop-opacity="0.5"/>
</linearGradient>
</defs>
</svg>
