<svg width="18" height="18" viewBox="0 0 18 18" fill="none" xmlns="http://www.w3.org/2000/svg">
<path d="M2.76274 11.8289C2.76274 11.8289 2.50539 12.3042 2.48571 12.6009C2.46602 12.8977 2.6643 15.3136 3.09883 15.848C3.53336 16.3823 4.86086 17.7886 8.78008 17.828C12.6993 17.8674 14.699 16.0856 14.917 15.7299C15.1349 15.3741 15.412 13.7105 15.4316 12.4041C15.4513 11.0977 8.48336 12.0075 8.48336 12.0075L2.76274 11.8289Z" fill="#FBB75A"/>
<path d="M8.70375 14.9961C12.1884 15.0945 15.4144 12.957 15.4144 12.957L15.3159 14.0258C15.3159 14.0258 12.6637 16.0648 8.76281 15.9664C4.86188 15.868 2.60625 14.0258 2.60625 14.0258L2.50781 13.0948C2.50781 13.0948 5.65641 14.9089 8.70375 14.9961Z" fill="#F2A05B"/>
<path d="M9.13722 6.68375C7.65222 6.69078 3.17894 7.03953 2.72331 8.94078C2.26769 10.842 2.32675 12.6238 2.4069 12.7813C2.48565 12.9402 2.66284 12.6659 3.0805 12.8206C3.61487 13.0189 3.5755 14.4631 4.54581 14.7205C5.51612 14.9778 5.53581 13.6517 6.64394 13.7305C7.75206 13.8092 7.23737 15.2956 8.70269 15.3139C10.2074 15.3336 9.64909 13.843 10.7024 13.7108C11.7444 13.5786 11.1974 15.1958 12.643 14.9778C14.0886 14.7598 13.9213 12.7025 14.661 12.4845C15.2221 12.32 15.1742 12.8713 15.44 12.8473C15.658 12.8277 15.5722 9.81125 15.3739 9.13907C15.1757 8.46688 13.3138 6.66407 9.13722 6.68375Z" fill="url(#paint0_radial_8673_217956)"/>
<path d="M4.63453 10.9302C3.58125 10.4859 3.24093 10.0654 3.07078 9.85163C2.95265 9.70257 2.77406 9.64351 2.67422 9.76304C2.57578 9.88116 2.625 10.0105 2.73328 10.1385C2.84156 10.2679 3.32672 11.009 4.57406 11.4154C5.67093 11.7726 6.39515 11.8218 6.67218 11.8316C6.98015 11.8429 7.10812 11.4562 6.70172 11.4055C6.23625 11.3479 5.78343 11.4154 4.63453 10.9302ZM7.79859 11.5476C7.52859 11.5405 7.42875 11.6924 7.42875 11.8119C7.42875 11.9568 7.5539 12.0369 7.77187 12.0496C7.98984 12.0623 8.115 11.9174 8.115 11.819C8.1164 11.7191 8.05593 11.5532 7.79859 11.5476Z" fill="#FDFFFF"/>
<path d="M3.53659 12.4867C3.41284 12.6076 3.46487 12.7483 3.52393 12.8214C3.62097 12.9409 3.79534 12.9606 3.88534 12.8903C3.988 12.8115 3.97534 12.6653 3.91065 12.5683C3.82768 12.4417 3.65893 12.3658 3.53659 12.4867ZM3.88253 13.007C3.71237 13.1026 3.78831 13.315 3.87972 13.4893C4.07518 13.8606 4.13706 14.1629 4.36206 14.312C4.58987 14.4625 4.87112 14.3584 4.8444 14.2023C4.80222 13.9534 4.64893 14.1418 4.51675 13.8268C4.4619 13.6961 4.3494 13.4865 4.21862 13.2039C4.14268 13.0379 4.05409 12.91 3.88253 13.007ZM7.84534 14.0097C7.678 14.1292 7.77925 14.4315 7.99018 14.6692C8.20112 14.9068 8.49784 15.0981 8.82128 15.0123C9.07159 14.9462 9.0519 14.6692 8.88034 14.5904C8.70878 14.5117 8.50487 14.5581 8.31925 14.3134C8.22925 14.1939 8.10268 13.8254 7.84534 14.0097ZM11.8194 13.7495C11.6535 13.8718 11.8096 14.1264 11.9122 14.3022C12.0149 14.4779 12.3538 14.8154 12.5521 14.6158C12.6969 14.4695 12.4241 14.2923 12.2961 14.1011C12.2005 13.9562 12.0402 13.585 11.8194 13.7495ZM11.5339 13.2911C11.4242 13.3712 11.4411 13.4978 11.4805 13.5681C11.5339 13.6609 11.7055 13.7003 11.8039 13.6145C11.8996 13.5315 11.8433 13.3965 11.7913 13.3304C11.7392 13.2643 11.6071 13.2376 11.5339 13.2911Z" fill="#FCE9CA"/>
<path d="M12.1481 5.56422C12.1481 5.56422 11.0611 7.06328 11.13 7.36141C11.1835 7.59625 11.4366 7.84797 11.978 7.88453C12.5194 7.92109 12.8583 7.66938 12.9356 7.43031C13.0397 7.1125 12.7008 6.1 12.5785 5.89891C12.4055 5.61344 12.2494 5.57266 12.1481 5.56422ZM14.3953 6.91703L13.2267 8.55391C13.2267 8.55391 13.2619 8.9125 13.6135 9.06719C13.9805 9.2275 14.73 9.23734 14.9452 8.92375C15.1899 8.56797 15.0844 7.95625 14.9606 7.58641C14.865 7.29672 14.6625 6.88609 14.3953 6.91703ZM12.4167 8.76625L11.2861 10.503C11.2861 10.503 11.2735 10.9333 11.7839 11.0528C12.1889 11.147 12.9328 11.1513 13.2099 10.9136C13.4869 10.6759 13.4644 10.1978 13.2253 9.69578C12.9638 9.15016 12.5756 8.63688 12.4167 8.76625ZM9.60143 9.19234L8.12065 10.9839C8.12065 10.9839 8.09112 11.3298 8.45674 11.4986C8.92643 11.7166 9.64924 11.7053 10.0163 11.5084C10.3383 11.3355 10.3875 10.787 10.2708 10.4439C10.1752 10.1641 10.043 9.92641 9.99377 9.79703C9.94455 9.66906 9.77862 9.27109 9.60143 9.19234ZM6.41346 8.58766L5.15205 10.5578C5.15205 10.5578 5.19143 11.0177 5.67237 11.1119C6.08721 11.1934 6.77065 11.2413 7.0083 10.9431C7.24596 10.645 7.2558 9.88844 7.02799 9.35406C6.80018 8.82109 6.6019 8.65797 6.41346 8.58766ZM4.49815 6.73L4.3294 6.66953L3.2044 8.44703C3.2044 8.44703 3.17205 8.76063 3.43362 8.92797C3.68112 9.08688 4.46862 9.16563 4.8933 8.9575C5.3194 8.74938 5.28846 8.05188 4.99174 7.45281C4.71752 6.89734 4.49815 6.73 4.49815 6.73ZM6.56252 5.41797L5.46987 7.30375C5.46987 7.30375 5.51768 7.54844 5.89455 7.65531C6.2644 7.76078 6.74815 7.74109 6.99565 7.54984C7.24455 7.35859 7.31065 6.93813 7.19674 6.45016C7.1194 6.11688 6.81987 5.51359 6.56252 5.41797Z" fill="#EE5B4A"/>
<path d="M5.48502 9.2753C5.25018 9.78155 4.92111 10.5325 5.29658 10.78C5.67205 11.0275 6.22752 10.6309 6.42439 9.88842C6.62127 9.14592 6.65221 8.77467 6.46377 8.61576C6.27674 8.45967 5.79158 8.61295 5.48502 9.2753ZM4.21096 6.61186C3.94377 6.62873 3.63721 7.04217 3.48393 7.44858C3.33064 7.85498 3.15205 8.35983 3.21674 8.52295C3.28143 8.68608 3.72158 8.88436 3.91002 8.53842C4.09846 8.19248 4.06049 7.72983 4.10268 7.49358C4.17721 7.07733 4.49924 6.73139 4.49924 6.73139C4.49924 6.73139 4.38955 6.60061 4.21096 6.61186ZM6.32877 5.33639C6.13752 5.34764 5.95611 5.4278 5.79299 5.96217C5.70439 6.25467 5.45408 6.59358 5.43018 6.9128C5.40627 7.23342 5.47799 7.31639 5.47799 7.31639C5.47799 7.31639 5.93643 7.40498 6.11502 7.0478C6.28658 6.70608 6.23314 6.35733 6.2908 6.19561C6.34846 6.03248 6.61143 5.44045 6.61143 5.44045C6.61143 5.44045 6.49611 5.32795 6.32877 5.33639Z" fill="#FD6F42"/>
<path d="M12.1021 5.55497C11.901 5.54513 11.6071 5.79403 11.42 6.23841C11.2316 6.68278 11.1177 7.16513 11.1261 7.30716C11.1346 7.44919 11.8771 7.46606 12.1386 7.03716C12.3032 6.76716 12.2947 6.04294 12.2764 5.86856C12.2596 5.69278 12.3116 5.56481 12.1021 5.55497ZM14.3338 6.912C14.1608 6.94013 13.753 7.03997 13.4239 7.75013C13.2186 8.19309 13.1568 8.61919 13.3058 8.68106C13.4549 8.74294 13.8613 8.80481 14.0469 8.57278C14.2325 8.34075 14.4378 7.70934 14.4843 7.39434C14.5293 7.08216 14.5602 6.87544 14.3338 6.912ZM11.3286 10.6231C11.5508 10.8256 11.9741 10.6343 12.126 10.4543C12.358 10.1773 12.5521 9.59794 12.5619 9.19294C12.5689 8.89903 12.6364 8.73309 12.3791 8.74716C12.2905 8.75278 12.0472 8.79638 11.766 9.21263C11.5424 9.54169 11.4144 9.80184 11.3399 10.1239C11.2766 10.3911 11.2639 10.564 11.3286 10.6231ZM9.30925 9.09309C9.16582 9.08747 8.893 9.17184 8.61175 9.63731C8.3291 10.1028 8.00847 10.8551 8.14629 11.0872C8.2855 11.3192 8.62582 11.3445 8.97316 11.2011C9.3191 11.0576 9.55675 10.557 9.57644 10.3545C9.59613 10.152 9.72972 9.28575 9.61582 9.20138C9.50191 9.11841 9.433 9.09872 9.30925 9.09309Z" fill="#FF6E45"/>
<path d="M14.6683 3.65906C14.6683 5.61797 11.538 7.35469 9.09813 7.35469C6.65828 7.35469 3.55469 5.5125 3.55469 3.55359C3.55469 1.59469 6.61469 0.0351562 9.05313 0.0351562C11.4916 0.0351562 14.6683 1.70016 14.6683 3.65906Z" fill="url(#paint1_radial_8673_217956)"/>
<path d="M10.2382 4.37566C10.2875 4.30675 11.2142 4.38409 11.2971 4.40519C11.3365 4.41503 11.3267 7.94894 11.2775 7.97847C11.2353 8.00378 11.0693 8.15706 10.7529 8.15706C10.4365 8.15706 10.2579 8.04878 10.1989 8.008C10.1398 7.96862 10.189 4.44456 10.2382 4.37566Z" fill="#FEA8A8"/>
<path d="M8.53256 5.2478C8.49459 5.28015 8.48334 8.69312 8.51287 8.72265C8.5424 8.75218 8.74068 8.93077 9.126 8.92093C9.51272 8.91109 9.6899 8.77187 9.71943 8.74234C9.74897 8.7128 9.73912 5.2478 9.70959 5.22812C9.68006 5.20702 8.59162 5.19718 8.53256 5.2478Z" fill="#EC7FAE"/>
<path d="M6.86957 4.51348C6.82176 4.54161 6.82035 8.00802 6.84004 8.03755C6.85973 8.06708 7.1466 8.16692 7.41379 8.16692C7.68098 8.16692 7.93832 8.10786 7.96785 8.07833C7.99739 8.0488 7.9777 4.55427 7.94817 4.51489C7.91864 4.47552 6.91879 4.48395 6.86957 4.51348Z" fill="#93C7EE"/>
<path d="M9.13711 2.10938C9.19617 2.10938 9.27632 2.57484 9.3846 2.84203C9.49289 3.10922 9.89929 3.77297 9.74039 4.34672C9.56742 4.97531 8.58726 5.09766 8.37492 4.27781C8.22585 3.70406 8.7307 3.10922 8.86007 2.84203C8.94867 2.65781 9.09632 2.10938 9.13711 2.10938Z" fill="url(#paint2_radial_8673_217956)"/>
<path d="M10.729 1.38672C10.729 1.38672 10.5827 2.05328 10.4027 2.33734C10.1454 2.74375 9.98226 3.29922 10.1848 3.75344C10.4421 4.32719 11.4729 4.29766 11.4912 3.3175C11.501 2.80281 11.276 2.53 11.1157 2.23891C11.006 2.04063 10.7979 1.40641 10.729 1.38672Z" fill="url(#paint3_radial_8673_217956)"/>
<path d="M7.45586 1.49609C7.45586 1.49609 7.18868 2.15984 7.01993 2.40734C6.85118 2.65484 6.55165 3.23844 6.72321 3.70391C6.93133 4.26781 7.85243 4.33531 8.02961 3.59562C8.14774 3.10062 7.8904 2.72516 7.71321 2.31875C7.60211 2.06281 7.45586 1.49609 7.45586 1.49609Z" fill="url(#paint4_radial_8673_217956)"/>
<defs>
<radialGradient id="paint0_radial_8673_217956" cx="0" cy="0" r="1" gradientTransform="matrix(-0.125551 6.43723 -14.0134 -0.273637 9.18448 8.82196)" gradientUnits="userSpaceOnUse">
<stop offset="0.445" stop-color="#FEEAC9"/>
<stop offset="0.565" stop-color="#FEE7C2"/>
<stop offset="0.741" stop-color="#FEDEAE"/>
<stop offset="0.952" stop-color="#FFCF8D"/>
<stop offset="1" stop-color="#FFCB85"/>
</radialGradient>
<radialGradient id="paint1_radial_8673_217956" cx="0" cy="0" r="1" gradientUnits="userSpaceOnUse" gradientTransform="translate(9.11233 3.69474) scale(5.48775 3.37881)">
<stop offset="0.034" stop-color="#FFE265" stop-opacity="0.7"/>
<stop offset="0.112" stop-color="#FFE575" stop-opacity="0.643"/>
<stop offset="0.417" stop-color="#FFF0B0" stop-opacity="0.422"/>
<stop offset="0.677" stop-color="#FFF8DB" stop-opacity="0.234"/>
<stop offset="0.88" stop-color="#FFFDF5" stop-opacity="0.087"/>
<stop offset="1" stop-color="white" stop-opacity="0"/>
</radialGradient>
<radialGradient id="paint2_radial_8673_217956" cx="0" cy="0" r="1" gradientUnits="userSpaceOnUse" gradientTransform="translate(9.12712 5.05941) scale(2.73206 2.73206)">
<stop offset="0.17" stop-color="#FF9616"/>
<stop offset="0.654" stop-color="#FFD429"/>
</radialGradient>
<radialGradient id="paint3_radial_8673_217956" cx="0" cy="0" r="1" gradientUnits="userSpaceOnUse" gradientTransform="translate(10.8558 4.3352) scale(2.67806)">
<stop offset="0.17" stop-color="#FF9616"/>
<stop offset="0.654" stop-color="#FFD429"/>
</radialGradient>
<radialGradient id="paint4_radial_8673_217956" cx="0" cy="0" r="1" gradientUnits="userSpaceOnUse" gradientTransform="translate(7.42943 4.33419) scale(2.6512)">
<stop offset="0.17" stop-color="#FF9616"/>
<stop offset="0.654" stop-color="#FFD429"/>
</radialGradient>
</defs>
</svg>
