<svg width="12" height="12" viewBox="0 0 12 12" fill="none" xmlns="http://www.w3.org/2000/svg">
<g clip-path="url(#clip0_8690_161004)">
<path d="M7.73617 6.44531L8.49345 10.7071C8.50194 10.7573 8.49489 10.8088 8.47327 10.8549C8.45165 10.901 8.41648 10.9394 8.37245 10.9649C8.32843 10.9904 8.27766 11.0019 8.22693 10.9978C8.1762 10.9938 8.12793 10.9743 8.08857 10.942L6.29909 9.5989C6.2127 9.53436 6.10776 9.49949 5.99993 9.49949C5.89209 9.49949 5.78715 9.53436 5.70076 9.5989L3.90828 10.9415C3.86895 10.9737 3.82074 10.9932 3.77007 10.9973C3.7194 11.0014 3.66869 10.9899 3.62469 10.9644C3.5807 10.939 3.54552 10.9007 3.52385 10.8547C3.50218 10.8087 3.49504 10.7572 3.5034 10.7071L4.26018 6.44531" stroke="#1D4ED8" stroke-width="0.8" stroke-linecap="round" stroke-linejoin="round"/>
<path d="M5.99913 6.99826C7.65551 6.99826 8.99826 5.65551 8.99826 3.99913C8.99826 2.34276 7.65551 1 5.99913 1C4.34276 1 3 2.34276 3 3.99913C3 5.65551 4.34276 6.99826 5.99913 6.99826Z" stroke="#1D4ED8" stroke-width="0.8" stroke-linecap="round" stroke-linejoin="round"/>
</g>
<defs>
<clipPath id="clip0_8690_161004">
<rect width="11.9965" height="11.9965" fill="white"/>
</clipPath>
</defs>
</svg>
