<svg width="12" height="12" viewBox="0 0 12 12" fill="none" xmlns="http://www.w3.org/2000/svg">
<g clip-path="url(#clip0_9767_196508)">
<path d="M1.03124 6.17263C0.989585 6.0604 0.989585 5.93696 1.03124 5.82473C1.43698 4.84094 2.12568 3.99978 3.01006 3.40788C3.89443 2.81598 4.93464 2.5 5.99881 2.5C7.06298 2.5 8.10318 2.81598 8.98756 3.40788C9.87193 3.99978 10.5606 4.84094 10.9664 5.82473C11.008 5.93696 11.008 6.0604 10.9664 6.17263C10.5606 7.15642 9.87193 7.99758 8.98756 8.58948C8.10318 9.18138 7.06298 9.49736 5.99881 9.49736C4.93464 9.49736 3.89443 9.18138 3.01006 8.58948C2.12568 7.99758 1.43698 7.15642 1.03124 6.17263Z" stroke="#3300C9" stroke-linecap="round" stroke-linejoin="round"/>
<path d="M5.99761 7.49913C6.8258 7.49913 7.49718 6.82775 7.49718 5.99957C7.49718 5.17138 6.8258 4.5 5.99761 4.5C5.16943 4.5 4.49805 5.17138 4.49805 5.99957C4.49805 6.82775 5.16943 7.49913 5.99761 7.49913Z" stroke="#3300C9" stroke-linecap="round" stroke-linejoin="round"/>
</g>
<defs>
<clipPath id="clip0_9767_196508">
<rect width="11.9965" height="11.9965" fill="white"/>
</clipPath>
</defs>
</svg>
