<svg width="80" height="80" viewBox="0 0 80 80" fill="none" xmlns="http://www.w3.org/2000/svg">
<path d="M51.5892 42.9648L56.6392 71.3848C56.6957 71.7195 56.6488 72.0634 56.5046 72.3707C56.3604 72.6779 56.1258 72.9338 55.8323 73.1042C55.5387 73.2745 55.2002 73.3512 54.8619 73.3239C54.5236 73.2966 54.2016 73.1667 53.9392 72.9515L42.0058 63.9948C41.4298 63.5645 40.7299 63.3319 40.0108 63.3319C39.2917 63.3319 38.5919 63.5645 38.0158 63.9948L26.0625 72.9482C25.8002 73.163 25.4787 73.2927 25.1408 73.32C24.8029 73.3473 24.4647 73.2709 24.1714 73.1011C23.878 72.9312 23.6434 72.6759 23.4989 72.3693C23.3544 72.0626 23.3068 71.7192 23.3625 71.3848L28.4092 42.9648" stroke="#5B4FFF" stroke-width="2" stroke-linecap="round" stroke-linejoin="round"/>
<path d="M40 46.668C51.0457 46.668 60 37.7137 60 26.668C60 15.6223 51.0457 6.66797 40 6.66797C28.9543 6.66797 20 15.6223 20 26.668C20 37.7137 28.9543 46.668 40 46.668Z" stroke="#5B4FFF" stroke-width="2" stroke-linecap="round" stroke-linejoin="round"/>
</svg>
