<svg width="21" height="21" viewBox="0 0 21 21" fill="none" xmlns="http://www.w3.org/2000/svg">
<path d="M9.17785 9.82617H6.96952C6.44452 9.82617 6.01953 10.2511 6.01953 10.7761V15.0428H9.17785V9.82617V9.82617Z" stroke="#292D32" strokeWidth="1.25" stroke-miterlimit="10" strokeLinecap="round" strokeLinejoin="round"/>
<path d="M11.3885 6.03516H10.1219C9.59686 6.03516 9.17188 6.46017 9.17188 6.98517V15.0352H12.3302V6.98517C12.3302 6.46017 11.9135 6.03516 11.3885 6.03516Z" stroke="#292D32" strokeWidth="1.25" stroke-miterlimit="10" strokeLinecap="round" strokeLinejoin="round"/>
<path d="M14.5443 11.2441H12.3359V15.0358H15.4943V12.1942C15.4859 11.6692 15.0609 11.2441 14.5443 11.2441Z" stroke="#292D32" strokeWidth="1.25" stroke-miterlimit="10" strokeLinecap="round" strokeLinejoin="round"/>
<path d="M8.25521 18.8678H13.2552C17.4219 18.8678 19.0885 17.2012 19.0885 13.0345V8.03451C19.0885 3.86784 17.4219 2.20117 13.2552 2.20117H8.25521C4.08854 2.20117 2.42188 3.86784 2.42188 8.03451V13.0345C2.42188 17.2012 4.08854 18.8678 8.25521 18.8678Z" stroke="#292D32" strokeWidth="1.25" strokeLinecap="round" strokeLinejoin="round"/>
</svg>
