<svg width="21" height="21" viewBox="0 0 21 21" fill="none" xmlns="http://www.w3.org/2000/svg">
<path d="M7.98047 12.1473C7.98047 13.2223 8.80547 14.0889 9.83047 14.0889H11.9221C12.8138 14.0889 13.5388 13.3306 13.5388 12.3973C13.5388 11.3806 13.0971 11.0223 12.4388 10.7889L9.08047 9.62227C8.42214 9.38893 7.98047 9.0306 7.98047 8.01393C7.98047 7.0806 8.70547 6.32227 9.59713 6.32227H11.6888C12.7138 6.32227 13.5388 7.18893 13.5388 8.26393" stroke="#292D32" stroke-width="1.25" stroke-linecap="round" stroke-linejoin="round"/>
<path d="M10.7539 5.20508V15.2051" stroke="#292D32" stroke-width="1.25" stroke-linecap="round" stroke-linejoin="round"/>
<path d="M13.2552 18.5378H8.25521C4.08854 18.5378 2.42188 16.8711 2.42188 12.7044V7.70443C2.42188 3.53776 4.08854 1.87109 8.25521 1.87109H13.2552C17.4219 1.87109 19.0885 3.53776 19.0885 7.70443V12.7044C19.0885 16.8711 17.4219 18.5378 13.2552 18.5378Z" stroke="#292D32" stroke-width="1.25" stroke-linecap="round" stroke-linejoin="round"/>
</svg>
