<svg width="16" height="16" viewBox="0 0 16 16" fill="none" xmlns="http://www.w3.org/2000/svg">
<path d="M10.3866 7.99993C10.3866 9.31993 9.31993 10.3866 7.99993 10.3866C6.67993 10.3866 5.61328 9.31993 5.61328 7.99993C5.61328 6.67993 6.67993 5.61328 7.99993 5.61328C9.31993 5.61328 10.3866 6.67993 10.3866 7.99993Z" stroke="#292D32" stroke-opacity="0.8" stroke-linecap="round" stroke-linejoin="round"/>
<path d="M8.00377 13.5138C10.3571 13.5138 12.5504 12.1272 14.0771 9.72716C14.6771 8.78716 14.6771 7.20716 14.0771 6.26714C12.5504 3.86714 10.3571 2.48047 8.00377 2.48047C5.65047 2.48047 3.45714 3.86714 1.93047 6.26714C1.33047 7.20716 1.33047 8.78716 1.93047 9.72716C3.45714 12.1272 5.65047 13.5138 8.00377 13.5138Z" stroke="#292D32" stroke-opacity="0.8" stroke-linecap="round" stroke-linejoin="round"/>
</svg>
