<svg width="48" height="48" viewBox="0 0 48 48" fill="none" xmlns="http://www.w3.org/2000/svg">
<path d="M41.491 20.9187L41.4816 20.8812L36.2222 7.51719C35.9879 6.7625 35.2894 6.24219 34.4972 6.24219H13.1785C12.3816 6.24219 11.6738 6.77188 11.4488 7.53594L6.5316 20.7641L6.51754 20.7969L6.50816 20.8344C6.44723 21.0641 6.42848 21.2984 6.46129 21.5281C6.4566 21.6031 6.45191 21.6781 6.45191 21.7531V38.9047C6.45315 39.6602 6.75382 40.3844 7.28803 40.9186C7.82224 41.4528 8.54643 41.7534 9.30191 41.7547H38.7019C40.2722 41.7547 41.5519 40.475 41.5566 38.9047V21.7531C41.5566 21.6922 41.5566 21.6312 41.5519 21.5797C41.5707 21.35 41.5519 21.1297 41.491 20.9187ZM27.6254 18.9031L27.6113 19.6391C27.5738 21.7437 26.1207 23.1594 23.9972 23.1594C22.9613 23.1594 22.0707 22.8266 21.4285 22.1937C20.7863 21.5609 20.4347 20.6797 20.416 19.6391L20.4019 18.9031H10.755L14.4816 9.84219H33.1941L37.0238 18.9031H27.6254ZM10.0472 22.5031H17.4207C18.5597 25.1797 20.9832 26.7594 24.0019 26.7594C25.5816 26.7594 27.0488 26.3187 28.2347 25.4844C29.2754 24.7531 30.0863 23.7312 30.6113 22.5031H37.9472V38.1547H10.0472V22.5031Z" fill="#254C00"/>
</svg>
