<svg width="16" height="16" viewBox="0 0 16 16" fill="none" xmlns="http://www.w3.org/2000/svg">
<path d="M12.7247 9.62813V12.5881C12.7246 13.0069 12.5581 13.4086 12.262 13.7047C11.9658 14.0008 11.5642 14.1673 11.1454 14.1675H3.41139C3.20323 14.1674 2.99713 14.1262 2.80495 14.0462C2.61276 13.9662 2.43828 13.849 2.29152 13.7014C2.14476 13.5538 2.02862 13.3786 1.94977 13.1859C1.87092 12.9933 1.83092 12.787 1.83206 12.5788V4.85347C1.83082 4.64563 1.87084 4.43962 1.94981 4.24736C2.02877 4.05511 2.1451 3.88044 2.29207 3.73348C2.43903 3.58651 2.6137 3.47018 2.80596 3.39121C2.99821 3.31225 3.20422 3.27223 3.41206 3.27347H6.37139" stroke="#292D32" stroke-opacity="0.8" stroke-linecap="round" stroke-linejoin="round"/>
<path d="M12.7247 5.99583L10.0014 3.27183M4.55469 10.5345V9.09116C4.55602 8.85316 4.65069 8.6245 4.81802 8.45583L11.1727 2.10116C11.257 2.0159 11.3574 1.94821 11.4681 1.90202C11.5787 1.85582 11.6974 1.83203 11.8174 1.83203C11.9373 1.83203 12.056 1.85582 12.1667 1.90202C12.2773 1.94821 12.3777 2.0159 12.462 2.10116L13.896 3.53516C13.9813 3.61948 14.049 3.71988 14.0952 3.83054C14.1414 3.94119 14.1652 4.05992 14.1652 4.17983C14.1652 4.29974 14.1414 4.41847 14.0952 4.52913C14.049 4.63978 13.9813 4.74018 13.896 4.8245L7.54135 11.1792C7.37238 11.347 7.14416 11.4416 6.90602 11.4425H5.46269C5.3434 11.4427 5.22525 11.4193 5.115 11.3737C5.00476 11.3282 4.90459 11.2613 4.82024 11.1769C4.73589 11.0926 4.66902 10.9924 4.62345 10.8822C4.57788 10.7719 4.55451 10.6538 4.55469 10.5345Z" stroke="#292D32" stroke-opacity="0.8" stroke-linecap="round" stroke-linejoin="round"/>
</svg>
