<svg width="16" height="16" viewBox="0 0 16 16" fill="none" xmlns="http://www.w3.org/2000/svg">
<mask id="mask0_9765_192853" style="mask-type:luminance" maskUnits="userSpaceOnUse" x="2" y="1" width="12" height="14">
<path fill-rule="evenodd" clip-rule="evenodd" d="M2 1.33984H13.3685V14.5755H2V1.33984Z" fill="white"/>
</mask>
<g mask="url(#mask0_9765_192853)">
<path fill-rule="evenodd" clip-rule="evenodd" d="M5.04874 2.33984C3.94407 2.33984 3.02674 3.23451 3.00074 4.33784V11.4678C2.97607 12.6098 3.87607 13.5505 5.00674 13.5758H10.3827C11.4954 13.5298 12.3767 12.6052 12.3687 11.4718V5.55851L9.27874 2.33984H5.05674H5.04874ZM5.05674 14.5758H4.98407C3.30274 14.5378 1.96407 13.1392 2.00074 11.4572V4.32584C2.0394 2.67184 3.4054 1.33984 5.0474 1.33984H5.05874H9.49207C9.62807 1.33984 9.75807 1.39518 9.85274 1.49318L13.2294 5.01118C13.3187 5.10384 13.3687 5.22851 13.3687 5.35718V11.4678C13.3807 13.1405 12.0781 14.5072 10.4027 14.5752L5.05674 14.5758Z" fill="#3300C9"/>
</g>
<path fill-rule="evenodd" clip-rule="evenodd" d="M12.8651 5.98803H11.0284C9.80841 5.9847 8.81641 4.99003 8.81641 3.77136V1.83203C8.81641 1.55603 9.04041 1.33203 9.31641 1.33203C9.59241 1.33203 9.81641 1.55603 9.81641 1.83203V3.77136C9.81641 4.4407 10.3611 4.98603 11.0297 4.98803H12.8651C13.1411 4.98803 13.3651 5.21203 13.3651 5.48803C13.3651 5.76403 13.1411 5.98803 12.8651 5.98803Z" fill="#3300C9"/>
<path fill-rule="evenodd" clip-rule="evenodd" d="M9.19375 10.7383H5.59375C5.31775 10.7383 5.09375 10.5143 5.09375 10.2383C5.09375 9.96228 5.31775 9.73828 5.59375 9.73828H9.19375C9.46975 9.73828 9.69375 9.96228 9.69375 10.2383C9.69375 10.5143 9.46975 10.7383 9.19375 10.7383Z" fill="#3300C9"/>
<path fill-rule="evenodd" clip-rule="evenodd" d="M7.82718 8.23438H5.58984C5.31384 8.23438 5.08984 8.01038 5.08984 7.73438C5.08984 7.45838 5.31384 7.23438 5.58984 7.23438H7.82718C8.10318 7.23438 8.32718 7.45838 8.32718 7.73438C8.32718 8.01038 8.10318 8.23438 7.82718 8.23438Z" fill="#3300C9"/>
</svg>
