<svg width="33" height="33" viewBox="0 0 33 33" fill="none" xmlns="http://www.w3.org/2000/svg">
<path d="M29.5415 0.00133151H1.72979C0.787474 0.00133151 0.00132413 0.800105 0.00132413 1.7613V4.91645C0.00132413 5.90161 0.787474 6.67908 1.73112 6.67908H29.5402C30.5063 6.67908 31.27 5.87764 31.2925 4.91778V1.78393C31.2925 0.801436 30.5063 0 29.5415 0V0.00133151ZM29.5415 17.5637H1.72979C1.50212 17.5641 1.27679 17.61 1.06687 17.6987C0.856954 17.7873 0.666618 17.917 0.506895 18.0802C0.181725 18.4119 -0.000396779 18.8592 6.49086e-07 19.325V22.4802C6.49086e-07 23.4653 0.78615 24.2414 1.72979 24.2414H29.5388C30.505 24.2414 31.2686 23.464 31.2911 22.4815V19.325C31.2911 18.3412 30.5063 17.5637 29.5415 17.5637ZM17.3879 26.3236H1.73112C1.27187 26.3236 0.831149 26.5086 0.508219 26.8388C0.183049 27.1705 0.000926706 27.6177 0.00132413 28.0835V31.2387C0.00132413 32.2239 0.787474 33 1.73112 33H17.3654C18.3316 33 19.0952 32.2012 19.0952 31.24V28.0835C19.1011 27.8544 19.0612 27.6263 18.978 27.4128C18.8948 27.1994 18.77 27.0048 18.6109 26.8407C18.4518 26.6765 18.2616 26.5461 18.0515 26.457C17.8415 26.368 17.6159 26.3235 17.3879 26.3236ZM31.2925 8.78119H1.73112C1.27187 8.78119 0.831149 8.96757 0.508219 9.29639C0.182726 9.62841 0.000578203 10.0762 0.00132413 10.5425V13.6976C0.00132413 14.6815 0.787474 15.4589 1.73112 15.4589H31.2713C32.2374 15.4589 32.9998 14.6588 32.9998 13.6976V10.5425C33.0036 10.3138 32.9624 10.0866 32.8785 9.87405C32.7946 9.66148 32.6697 9.46773 32.511 9.30398C32.3522 9.14023 32.1628 9.00972 31.9537 8.91999C31.7446 8.83026 31.5198 8.78309 31.2925 8.78119Z" fill="#00C3F7"/>
</svg>
