<svg width="16" height="15" viewBox="0 0 16 15" fill="none" xmlns="http://www.w3.org/2000/svg">
<path d="M8.625 5.625H12.0625L8.625 2.1875V5.625ZM4.25 1.25H9.25L13 5V12.5C13 12.8315 12.8683 13.1495 12.6339 13.3839C12.3995 13.6183 12.0815 13.75 11.75 13.75H4.25C3.91848 13.75 3.60054 13.6183 3.36612 13.3839C3.1317 13.1495 3 12.8315 3 12.5V2.5C3 2.16848 3.1317 1.85054 3.36612 1.61612C3.60054 1.3817 3.91848 1.25 4.25 1.25ZM7.33125 7.775C7.5875 8.3375 7.9125 8.8 8.2875 9.11875L8.54375 9.31875C8 9.41875 7.25 9.59375 6.45625 9.9L6.3875 9.925L6.7 9.275C6.98125 8.73125 7.1875 8.2375 7.33125 7.775ZM11.3813 10.1562C11.4937 10.0437 11.55 9.9 11.5563 9.74375C11.575 9.61875 11.5437 9.5 11.4812 9.4C11.3 9.10625 10.8313 8.96875 10.0563 8.96875L9.25 9.0125L8.70625 8.65C8.3125 8.325 7.95625 7.75625 7.70625 7.05L7.73125 6.9625C7.9375 6.13125 8.13125 5.125 7.71875 4.7125C7.66829 4.66351 7.60861 4.62502 7.54317 4.59927C7.47772 4.57352 7.40781 4.56102 7.3375 4.5625H7.1875C6.95625 4.5625 6.75 4.80625 6.69375 5.04375C6.4625 5.875 6.6 6.33125 6.83125 7.0875V7.09375C6.675 7.64375 6.475 8.28125 6.15625 8.925L5.55625 10.05L5 10.3562C4.25 10.825 3.89375 11.35 3.825 11.6813C3.8 11.8 3.8125 11.9062 3.85625 12.0187L3.875 12.05L4.175 12.2437L4.45 12.3125C4.95625 12.3125 5.53125 11.7187 6.30625 10.3937L6.41875 10.35C7.0625 10.1437 7.8625 10 8.9375 9.88125C9.58125 10.2 10.3375 10.3438 10.8125 10.3438C11.0875 10.3438 11.275 10.275 11.3813 10.1562ZM11.125 9.7125L11.1812 9.78125C11.175 9.84375 11.1562 9.85 11.125 9.8625H11.1L10.9813 9.875C10.6938 9.875 10.25 9.75625 9.79375 9.55625C9.85 9.49375 9.875 9.49375 9.9375 9.49375C10.8125 9.49375 11.0625 9.65 11.125 9.7125ZM5.39375 10.625C4.9875 11.3687 4.61875 11.7812 4.3375 11.875C4.36875 11.6375 4.65 11.225 5.09375 10.8187L5.39375 10.625ZM7.28125 6.30625C7.1375 5.74375 7.13125 5.2875 7.2375 5.025L7.28125 4.95L7.375 4.98125C7.48125 5.13125 7.49375 5.33125 7.43125 5.66875L7.4125 5.76875L7.3125 6.28125L7.28125 6.30625Z" fill="#EF5350"/>
</svg>
