<svg width="21" height="21" viewBox="0 0 21 21" fill="none" xmlns="http://www.w3.org/2000/svg">
<path d="M8.38802 9.26276C8.30469 9.25443 8.20469 9.25443 8.11302 9.26276C6.12969 9.19609 4.55469 7.57109 4.55469 5.57109C4.55469 3.52943 6.20469 1.87109 8.25469 1.87109C10.2964 1.87109 11.9547 3.52943 11.9547 5.57109C11.9464 7.57109 10.3714 9.19609 8.38802 9.26276Z" stroke="#292D32" strokeWidth="1.25" strokeLinecap="round" strokeLinejoin="round"/>
<path d="M14.4286 3.53906C16.0453 3.53906 17.3453 4.8474 17.3453 6.45573C17.3453 8.03073 16.0953 9.31406 14.537 9.3724C14.4703 9.36406 14.3953 9.36406 14.3203 9.3724" stroke="#292D32" strokeWidth="1.25" strokeLinecap="round" strokeLinejoin="round"/>
<path d="M4.21953 12.3391C2.20286 13.6891 2.20286 15.8891 4.21953 17.2307C6.5112 18.7641 10.2695 18.7641 12.5612 17.2307C14.5779 15.8807 14.5779 13.6807 12.5612 12.3391C10.2779 10.8141 6.51953 10.8141 4.21953 12.3391Z" stroke="#292D32" strokeWidth="1.25" strokeLinecap="round" strokeLinejoin="round"/>
<path d="M16.0391 16.8711C16.6391 16.7461 17.2057 16.5044 17.6724 16.1461C18.9724 15.1711 18.9724 13.5628 17.6724 12.5878C17.2141 12.2378 16.6557 12.0044 16.0641 11.8711" stroke="#292D32" strokeWidth="1.25" strokeLinecap="round" strokeLinejoin="round"/>
</svg>
