<svg width="17" height="18" viewBox="0 0 17 18" fill="none" xmlns="http://www.w3.org/2000/svg">
<path d="M8.02382 2.68944C8.21843 2.36607 8.68724 2.36607 8.88185 2.68944L10.9805 6.17666C11.0504 6.29284 11.1644 6.37569 11.2965 6.40628L15.2616 7.3246C15.6293 7.40975 15.7742 7.85562 15.5267 8.14063L12.8587 11.2142C12.7698 11.3166 12.7263 11.4506 12.738 11.5857L13.0899 15.6405C13.1225 16.0165 12.7432 16.292 12.3957 16.1448L8.64816 14.5571C8.52331 14.5043 8.38236 14.5043 8.25751 14.5571L4.50993 16.1448C4.16242 16.292 3.78314 16.0165 3.81577 15.6405L4.16767 11.5857C4.1794 11.4506 4.13584 11.3166 4.04696 11.2142L1.37893 8.14063C1.13152 7.85562 1.27639 7.40975 1.64407 7.3246L5.60914 6.40628C5.74123 6.37569 5.85526 6.29284 5.92518 6.17666L8.02382 2.68944Z" fill="#F2C94C"/>
<path d="M14.271 1.18372L14.4305 2.77392L15.6838 3.7656L14.2207 4.40866L13.6648 5.90706L12.6011 4.7143L11.0043 4.64868L11.81 3.26845L11.3789 1.7295L12.9406 2.06923L14.271 1.18372Z" fill="#F2C94C"/>
<path d="M1.32042 2.12685L2.91844 2.14892L4.04597 1.01629L4.51881 2.54292L5.94442 3.26526L4.63863 4.18671L4.39217 5.76577L3.11232 4.80862L1.53438 5.06219L2.04918 3.5492L1.32042 2.12685Z" fill="#F2C94C"/>
</svg>
