<svg width="21" height="21" viewBox="0 0 21 21" fill="none" xmlns="http://www.w3.org/2000/svg">
<path d="M19.0859 5.20638V7.22305C19.0859 8.53971 18.2526 9.37305 16.9359 9.37305H14.0859V3.54805C14.0859 2.62305 14.8443 1.87305 15.7693 1.87305C16.6776 1.88138 17.511 2.24805 18.111 2.84805C18.711 3.45638 19.0859 4.28971 19.0859 5.20638Z" stroke="#292D32" strokeWidth="1.25" stroke-miterlimit="10" strokeLinecap="round" strokeLinejoin="round"/>
<path d="M2.42188 6.03971V17.7064C2.42188 18.398 3.20519 18.7897 3.75519 18.373L5.18021 17.3064C5.51354 17.0564 5.98021 17.0897 6.28021 17.3897L7.66352 18.7814C7.98852 19.1064 8.52189 19.1064 8.84689 18.7814L10.2469 17.3814C10.5386 17.0897 11.0052 17.0564 11.3302 17.3064L12.7552 18.373C13.3052 18.7814 14.0885 18.3897 14.0885 17.7064V3.53971C14.0885 2.62305 14.8385 1.87305 15.7552 1.87305H6.58854H5.75521C3.25521 1.87305 2.42188 3.36471 2.42188 5.20638V6.03971Z" stroke="#292D32" strokeWidth="1.25" stroke-miterlimit="10" strokeLinecap="round" strokeLinejoin="round"/>
<path d="M5.75 7.70508H10.75" stroke="#292D32" strokeWidth="1.25" strokeLinecap="round" strokeLinejoin="round"/>
<path d="M6.37891 11.0391H10.1289" stroke="#292D32" strokeWidth="1.25" strokeLinecap="round" strokeLinejoin="round"/>
</svg>
