<svg width="12" height="12" viewBox="0 0 12 12" fill="none" xmlns="http://www.w3.org/2000/svg">
<path d="M6 4V1L5 2" stroke="#7D7D7D" stroke-width="0.75" stroke-linecap="round" stroke-linejoin="round"/>
<path d="M6 1L7 2" stroke="#7D7D7D" stroke-width="0.75" stroke-linecap="round" stroke-linejoin="round"/>
<path d="M3.5 6C1.5 6 1.5 6.895 1.5 8V8.5C1.5 9.88 1.5 11 4 11H8C10 11 10.5 9.88 10.5 8.5V8C10.5 6.895 10.5 6 8.5 6C8 6 7.86 6.105 7.6 6.3L7.09 6.84C6.5 7.47 5.5 7.47 4.905 6.84L4.4 6.3C4.14 6.105 4 6 3.5 6Z" stroke="#7D7D7D" stroke-width="0.75" stroke-miterlimit="10" stroke-linecap="round" stroke-linejoin="round"/>
<path d="M2.5 5.99953V4.99953C2.5 3.99453 2.5 3.16453 4 3.01953" stroke="#7D7D7D" stroke-width="0.75" stroke-miterlimit="10" stroke-linecap="round" stroke-linejoin="round"/>
<path d="M9.5 5.99953V4.99953C9.5 3.99453 9.5 3.16453 8 3.01953" stroke="#7D7D7D" stroke-width="0.75" stroke-miterlimit="10" stroke-linecap="round" stroke-linejoin="round"/>
</svg>
