<svg width="24" height="24" viewBox="0 0 24 24" fill="none" xmlns="http://www.w3.org/2000/svg">
<path d="M7.15418 3H6.81818C5.80554 3 4.83437 3.40227 4.11832 4.11832C3.40227 4.83437 3 5.80554 3 6.81818V17.5385C3 18.4566 3.36469 19.337 4.01384 19.9862C4.66299 20.6353 5.54342 21 6.46145 21M7.15418 3V5.664C7.15418 6.24265 7.38405 6.79761 7.79322 7.20678C8.20239 7.61595 8.75735 7.84582 9.336 7.84582H11.8953C12.4739 7.84582 13.0289 7.61595 13.4381 7.20678C13.8472 6.79761 14.0771 6.24265 14.0771 5.664V3M7.15418 3H14.0771M6.46145 21V15.2727C6.46145 14.4047 6.80626 13.5723 7.42001 12.9586C8.03377 12.3448 8.8662 12 9.73418 12H14.2658C15.1338 12 15.9662 12.3448 16.58 12.9586C17.1937 13.5723 17.5385 14.4047 17.5385 15.2727V21M6.46145 21H17.5385M14.0771 3H14.1055C14.5354 2.99995 14.9611 3.08461 15.3583 3.24914C15.7555 3.41367 16.1164 3.65486 16.4204 3.95891L19.8818 7.42036C20.2364 7.77494 20.5176 8.19588 20.7094 8.65915C20.9013 9.12242 21 9.61894 21 10.1204V17.5385C21 18.4566 20.6353 19.337 19.9862 19.9862C19.337 20.6353 18.4566 21 17.5385 21" stroke="white" strokeWidth="1.63636" strokeLinecap="round" strokeLinejoin="round"/>
</svg>
