<?xml version="1.0" encoding="UTF-8"?>
<!DOCTYPE svg PUBLIC "-//W3C//DTD SVG 1.1//EN" "http://www.w3.org/Graphics/SVG/1.1/DTD/svg11.dtd">
<!-- Creator: CorelDRAW 2021 (64-Bit) -->
<svg xmlns="http://www.w3.org/2000/svg" xml:space="preserve" width="5.84654in" height="1.48965in" version="1.1" style="shape-rendering:geometricPrecision; text-rendering:geometricPrecision; image-rendering:optimizeQuality; fill-rule:evenodd; clip-rule:evenodd"
viewBox="0 0 5840.91 1488.22"
 xmlns:xlink="http://www.w3.org/1999/xlink"
 xmlns:xodm="http://www.corel.com/coreldraw/odm/2003">
 <defs>
  <style type="text/css">
   <![CDATA[
    .fil1 {fill:#310ECA}
    .fil0 {fill:#310ECA;fill-rule:nonzero}
    .fil3 {fill:#71DF0B;fill-rule:nonzero}
    .fil2 {fill:#71DF0B;fill-rule:nonzero}
   ]]>
  </style>
 </defs>
 <g id="Layer_x0020_1">
  <metadata id="CorelCorpID_0Corel-Layer"/>
  <path class="fil0" d="M730.01 1469.64c250.52,-60.23 392.79,-263.28 392.79,-552.64 0,-350.18 -205.74,-573.41 -558.13,-573.41 -354.56,0 -564.67,223.23 -564.67,573.41 0,321.33 179.16,536.25 485.76,567.31l0 -553.75c94.42,-38.31 177.85,-87.09 244.25,-162.25l0 701.32z"/>
  <path class="fil1" d="M1597.74 1466.32l0 -623.73c0,-166.34 67.84,-216.67 225.42,-216.67 166.34,0 216.69,54.72 216.69,207.91l0 632.49 328.3 0 0 -698.15c0,-234.18 -122.56,-424.58 -409.29,-424.58 -192.6,0 -310.78,89.73 -369.88,214.49l-13.13 0 0 -192.6 -304.23 0 0 1100.84 326.12 0zm1468.6 21.88c315.17,0 516.55,-137.88 516.55,-372.05l0 -21.88 -323.93 0 0 13.13c0,67.84 -56.9,96.3 -188.23,96.3 -167.63,0 -232.14,-53.48 -245.27,-185.37l-162.19 -29.19 280.19 0.02 0 0.06 635.04 0c6.57,-37.2 15.33,-100.67 15.33,-161.96 0,-286.69 -194.8,-483.66 -525.31,-483.66 -343.61,0 -553.71,223.23 -553.71,575.6 0,347.98 172.9,569.02 551.52,569.02zm-8.76 -875.41c153.23,0 227.63,63.45 221.07,177.27l-453.06 0c13.13,-116 74.41,-177.27 231.98,-177.27z"/>
  <path class="fil2" d="M4219.09 1488.22c203.54,0 330.49,-94.11 378.64,-229.8l8.76 0 0 207.91 140.08 0 0 -1466.33 -157.59 0 0 590.91c-45.96,-118.18 -179.47,-227.61 -387.39,-227.61 -295.48,0 -457.44,221.04 -457.44,562.46 0,341.42 170.72,562.46 474.95,562.46zm-317.36 -562.46c0,-330.47 131.32,-426.77 343.63,-426.77 214.49,0 343.62,111.62 343.62,334.85l0 186.03c0,221.05 -129.13,332.66 -343.62,332.66 -214.49,0 -343.63,-96.3 -343.63,-426.77zm1378.88 562.46c205.73,0 343.62,-98.48 407.1,-223.23l10.94 2.19 0 199.16 142.26 0 0 -676.27c0,-240.74 -131.32,-426.77 -420.23,-426.77 -280.15,0 -453.06,179.46 -453.06,404.88l0 17.51 151.02 0 0 -32.83c0,-172.9 91.93,-249.5 288.91,-249.5 203.55,0 284.53,76.6 284.53,267.01l0 78.79 -380.83 52.52c-236.37,32.83 -376.46,115.99 -376.46,304.21 0,181.65 148.83,282.32 345.82,282.32zm-192.61 -293.26c0,-115.99 63.47,-151.01 236.38,-175.09l367.7 -52.52 0 37.2c0,256.06 -181.66,352.36 -367.7,352.36 -166.34,0 -236.38,-50.34 -236.38,-161.95z"/>
  <path class="fil3" d="M730.01 545.14l0 164.04c-118.99,134.69 -292.68,219.94 -486.32,220.89l0 -232.24c129.21,-0.99 244.54,-60.2 321.1,-152.69l165.23 0z"/>
 </g>
</svg>
