<svg width="16" height="16" viewBox="0 0 16 16" fill="none" xmlns="http://www.w3.org/2000/svg">
<path d="M7.03849 9.90364C7.73486 9.50894 8.281 8.89484 8.59172 8.15716C8.90244 7.41948 8.96027 6.59969 8.75617 5.8257C8.55207 5.0517 8.09753 4.36703 7.46345 3.87848C6.82938 3.38994 6.05144 3.125 5.25099 3.125C4.45053 3.125 3.67259 3.38994 3.03852 3.87848C2.40445 4.36703 1.9499 5.0517 1.74581 5.8257C1.54171 6.59969 1.59953 7.41948 1.91025 8.15716C2.22097 8.89484 2.76712 9.50894 3.46349 9.90364C2.17284 10.3151 1.06445 11.1607 0.326611 12.2968C0.272242 12.3801 0.253188 12.4815 0.273641 12.5789C0.294094 12.6762 0.352379 12.7615 0.435673 12.8158C0.518968 12.8702 0.620449 12.8893 0.717792 12.8688C0.815135 12.8483 0.900367 12.7901 0.954736 12.7068C1.42012 11.9912 2.05684 11.4033 2.80711 10.9962C3.55738 10.5892 4.39742 10.376 5.25099 10.376C6.10455 10.376 6.9446 10.5892 7.69486 10.9962C8.44513 11.4033 9.08186 11.9912 9.54724 12.7068C9.60515 12.781 9.68885 12.8307 9.78173 12.8461C9.87461 12.8614 9.96986 12.8413 10.0486 12.7896C10.1273 12.738 10.1837 12.6586 10.2066 12.5673C10.2295 12.476 10.2173 12.3794 10.1722 12.2968C9.43518 11.1613 8.32797 10.3157 7.03849 9.90364ZM2.37599 6.75177C2.37599 6.18315 2.5446 5.6273 2.86051 5.1545C3.17642 4.68171 3.62543 4.31322 4.15077 4.09562C4.67611 3.87801 5.25418 3.82108 5.81187 3.93201C6.36957 4.04294 6.88184 4.31676 7.28392 4.71884C7.68599 5.12091 7.95981 5.63319 8.07074 6.19088C8.18168 6.74858 8.12474 7.32665 7.90714 7.85198C7.68954 8.37732 7.32104 8.82634 6.84825 9.14224C6.37546 9.45815 5.81961 9.62677 5.25099 9.62677C4.48879 9.62578 3.7581 9.32256 3.21915 8.78361C2.6802 8.24465 2.37698 7.51396 2.37599 6.75177ZM15.5635 12.8143C15.4803 12.8686 15.3789 12.8876 15.2816 12.8672C15.1843 12.8469 15.0991 12.7887 15.0447 12.7055C14.5802 11.9899 13.9439 11.4019 13.194 10.9952C12.444 10.5884 11.6042 10.3758 10.751 10.3768C10.6515 10.3768 10.5561 10.3373 10.4858 10.2669C10.4155 10.1966 10.376 10.1012 10.376 10.0018C10.376 9.90231 10.4155 9.80693 10.4858 9.7366C10.5561 9.66628 10.6515 9.62677 10.751 9.62677C11.1744 9.62634 11.5924 9.53242 11.9753 9.35171C12.3581 9.171 12.6963 8.90796 12.9658 8.58139C13.2352 8.25482 13.4292 7.87278 13.5338 7.46256C13.6385 7.05234 13.6513 6.62406 13.5713 6.20833C13.4912 5.79259 13.3204 5.39967 13.0709 5.05761C12.8214 4.71556 12.4995 4.43283 12.1281 4.22962C11.7567 4.0264 11.345 3.90772 10.9224 3.88206C10.4998 3.85639 10.0768 3.92437 9.68349 4.08114C9.63768 4.0999 9.58862 4.1094 9.53913 4.1091C9.48964 4.1088 9.4407 4.09871 9.39513 4.07941C9.34955 4.0601 9.30825 4.03197 9.27361 3.99663C9.23896 3.96129 9.21165 3.91943 9.19325 3.87349C9.17486 3.82754 9.16574 3.77841 9.16643 3.72892C9.16711 3.67943 9.17758 3.63057 9.19724 3.58515C9.2169 3.53973 9.24536 3.49865 9.28097 3.46428C9.31658 3.42991 9.35865 3.40293 9.40474 3.38489C10.2577 3.04481 11.208 3.04115 12.0637 3.37464C12.9193 3.70814 13.6164 4.35393 14.0143 5.18157C14.4122 6.00921 14.4811 6.957 14.2072 7.8335C13.9332 8.71 13.3368 9.44986 12.5385 9.90364C13.8291 10.3151 14.9375 11.1607 15.6754 12.2968C15.729 12.3803 15.7473 12.4816 15.7264 12.5786C15.7054 12.6756 15.6468 12.7604 15.5635 12.8143Z" fill="#434343"/>
</svg>
