<svg width="16" height="16" viewBox="0 0 16 16" fill="none" xmlns="http://www.w3.org/2000/svg">
<path d="M10.668 8.66749L14.15 10.9888C14.2002 11.0222 14.2585 11.0414 14.3187 11.0443C14.3789 11.0472 14.4388 11.0336 14.492 11.0052C14.5451 10.9767 14.5896 10.9344 14.6206 10.8827C14.6516 10.8309 14.6679 10.7718 14.668 10.7115V5.24749C14.668 5.18884 14.6525 5.13123 14.6232 5.08046C14.5938 5.02969 14.5515 4.98758 14.5007 4.95836C14.4498 4.92914 14.3922 4.91387 14.3335 4.91406C14.2749 4.91426 14.2173 4.92993 14.1666 4.95949L10.668 7.00083" stroke="#DC2626" stroke-linecap="round" stroke-linejoin="round"/>
<path d="M9.33203 4H2.66536C1.92898 4 1.33203 4.59695 1.33203 5.33333V10.6667C1.33203 11.403 1.92898 12 2.66536 12H9.33203C10.0684 12 10.6654 11.403 10.6654 10.6667V5.33333C10.6654 4.59695 10.0684 4 9.33203 4Z" stroke="#DC2626" stroke-linecap="round" stroke-linejoin="round"/>
</svg>
