<svg width="22" height="22" viewBox="0 0 22 22" fill="none" xmlns="http://www.w3.org/2000/svg">
<path d="M9.384 13.2023C10.3125 12.676 11.0407 11.8572 11.455 10.8736C11.8693 9.89003 11.9464 8.79699 11.6742 7.76499C11.4021 6.733 10.7961 5.8201 9.95062 5.16871C9.10519 4.51731 8.06793 4.16406 7.00066 4.16406C5.93339 4.16406 4.89614 4.51731 4.05071 5.16871C3.20528 5.8201 2.59922 6.733 2.32709 7.76499C2.05496 8.79699 2.13205 9.89003 2.54635 10.8736C2.96064 11.8572 3.68884 12.676 4.61733 13.2023C2.89647 13.7509 1.41862 14.8783 0.43483 16.3931C0.362338 16.5041 0.336933 16.6395 0.364203 16.7692C0.391474 16.899 0.469187 17.0127 0.580247 17.0852C0.691306 17.1577 0.826615 17.1831 0.956405 17.1558C1.0862 17.1285 1.19984 17.0508 1.27233 16.9398C1.89284 15.9857 2.7418 15.2017 3.74216 14.659C4.74252 14.1163 5.86258 13.8321 7.00066 13.8321C8.13875 13.8321 9.25881 14.1163 10.2592 14.659C11.2595 15.2017 12.1085 15.9857 12.729 16.9398C12.8062 17.0387 12.9178 17.105 13.0417 17.1255C13.1655 17.1459 13.2925 17.1191 13.3975 17.0502C13.5024 16.9814 13.5776 16.8756 13.6082 16.7538C13.6387 16.6321 13.6223 16.5033 13.5623 16.3931C12.5796 14.8791 11.1033 13.7517 9.384 13.2023ZM3.16733 8.99975C3.16733 8.24159 3.39215 7.50046 3.81336 6.87007C4.23458 6.23968 4.83326 5.74835 5.53371 5.45822C6.23416 5.16808 7.00492 5.09217 7.74851 5.24008C8.4921 5.38799 9.17514 5.75308 9.71124 6.28918C10.2473 6.82528 10.6124 7.50831 10.7603 8.25191C10.9082 8.9955 10.8323 9.76626 10.5422 10.4667C10.2521 11.1672 9.76074 11.7658 9.13035 12.1871C8.49996 12.6083 7.75882 12.8331 7.00066 12.8331C5.98441 12.8318 5.01015 12.4275 4.29155 11.7089C3.57295 10.9903 3.16865 10.016 3.16733 8.99975ZM20.7507 17.0831C20.6397 17.1555 20.5045 17.1809 20.3748 17.1537C20.2451 17.1265 20.1315 17.049 20.059 16.9381C19.4396 15.9839 18.5913 15.2 17.5913 14.6576C16.5913 14.1153 15.4716 13.8318 14.334 13.8331C14.2014 13.8331 14.0742 13.7804 13.9804 13.6866C13.8867 13.5929 13.834 13.4657 13.834 13.3331C13.834 13.2005 13.8867 13.0733 13.9804 12.9795C14.0742 12.8858 14.2014 12.8331 14.334 12.8331C14.8985 12.8325 15.4559 12.7073 15.9664 12.4663C16.4768 12.2254 16.9278 11.8747 17.287 11.4393C17.6463 11.0038 17.9049 10.4944 18.0445 9.94747C18.184 9.40051 18.2011 8.82947 18.0944 8.27516C17.9877 7.72085 17.7599 7.19695 17.4272 6.74088C17.0946 6.28481 16.6653 5.90784 16.1701 5.63688C15.6749 5.36593 15.126 5.20769 14.5625 5.17347C13.9991 5.13925 13.435 5.22989 12.9107 5.43892C12.8496 5.46393 12.7842 5.4766 12.7182 5.4762C12.6522 5.4758 12.5869 5.46234 12.5262 5.43661C12.4654 5.41087 12.4104 5.37336 12.3642 5.32623C12.318 5.27911 12.2815 5.22331 12.257 5.16205C12.2325 5.10078 12.2203 5.03527 12.2212 4.96929C12.2222 4.9033 12.2361 4.83815 12.2623 4.77759C12.2886 4.71703 12.3265 4.66226 12.374 4.61644C12.4215 4.57061 12.4775 4.53463 12.539 4.51059C13.6763 4.05715 14.9434 4.05226 16.0842 4.49692C17.225 4.94158 18.1546 5.80264 18.6851 6.90615C19.2156 8.00967 19.3075 9.2734 18.9422 10.4421C18.577 11.6107 17.7818 12.5972 16.7173 13.2023C18.4382 13.7509 19.916 14.8783 20.8998 16.3931C20.9713 16.5044 20.9958 16.6396 20.9678 16.7689C20.9399 16.8982 20.8618 17.0112 20.7507 17.0831Z" fill="white"/>
</svg>
