<svg width="12" height="12" viewBox="0 0 12 12" fill="none" xmlns="http://www.w3.org/2000/svg">
<g clip-path="url(#clip0_9765_193410)">
<path d="M1.03076 6.17263C0.989097 6.0604 0.989097 5.93696 1.03076 5.82473C1.43649 4.84094 2.1252 3.99978 3.00957 3.40788C3.89394 2.81598 4.93415 2.5 5.99832 2.5C7.06249 2.5 8.1027 2.81598 8.98707 3.40788C9.87144 3.99978 10.5601 4.84094 10.9659 5.82473C11.0075 5.93696 11.0075 6.0604 10.9659 6.17263C10.5601 7.15642 9.87144 7.99758 8.98707 8.58948C8.1027 9.18138 7.06249 9.49736 5.99832 9.49736C4.93415 9.49736 3.89394 9.18138 3.00957 8.58948C2.1252 7.99758 1.43649 7.15642 1.03076 6.17263Z" stroke="white" stroke-linecap="round" stroke-linejoin="round"/>
<path d="M5.9981 7.49913C6.82629 7.49913 7.49767 6.82775 7.49767 5.99957C7.49767 5.17138 6.82629 4.5 5.9981 4.5C5.16991 4.5 4.49854 5.17138 4.49854 5.99957C4.49854 6.82775 5.16991 7.49913 5.9981 7.49913Z" stroke="white" stroke-linecap="round" stroke-linejoin="round"/>
</g>
<defs>
<clipPath id="clip0_9765_193410">
<rect width="11.9965" height="11.9965" fill="white"/>
</clipPath>
</defs>
</svg>
