<svg width="15" height="18" viewBox="0 0 15 18" fill="none" xmlns="http://www.w3.org/2000/svg">
<path d="M3.08961 10.5195L0.227649 16.007C0.138059 16.1729 0.232941 16.2771 0.533387 16.2249L2.86295 15.77C2.90907 15.7555 2.95984 15.759 3.00295 15.7797C3.04599 15.8005 3.07745 15.8365 3.08961 15.879L4.13845 17.8124C4.23856 18.0209 4.35453 18.0636 4.44412 17.8977L7.49055 12.1544L3.08961 10.5195Z" fill="#DE7818"/>
<path d="M11.9127 10.5195L14.7746 16.007C14.8695 16.1729 14.7693 16.2771 14.4689 16.2249L12.1393 15.77C12.0932 15.756 12.0426 15.7598 11.9997 15.7804C11.9568 15.801 11.9253 15.8368 11.9127 15.879L10.8638 17.8125C10.7637 18.0209 10.653 18.0636 10.5582 17.8977L7.51172 12.1544L11.9127 10.5195Z" fill="#DE7818"/>
<path d="M6.63916 13.7531C6.63916 13.7578 6.62858 13.7531 6.61807 13.7531C5.0211 13.5939 3.52387 12.9757 2.3489 11.9902C2.34361 11.9855 2.32781 11.9808 2.3331 11.976L2.46488 11.7249C2.47009 11.7154 2.48068 11.7391 2.48597 11.7438C3.61382 12.6868 5.17919 13.2792 6.78145 13.4545C6.78674 13.4545 6.79725 13.4545 6.79725 13.4593L6.63916 13.7531Z" fill="#B35454"/>
<path d="M7.5 13.4864C11.6422 13.4864 15 10.4674 15 6.74317C15 3.01904 11.6422 0 7.5 0C3.35782 0 0 3.01904 0 6.74317C0 10.4674 3.35782 13.4864 7.5 13.4864Z" fill="#F0CD0A"/>
<path d="M7.50211 12.5585C11.0737 12.5585 13.9691 9.95531 13.9691 6.74406C13.9691 3.53287 11.0737 0.929688 7.50211 0.929688C3.93051 0.929688 1.03516 3.53287 1.03516 6.74406C1.03516 9.95531 3.93051 12.5585 7.50211 12.5585Z" fill="#D2B309"/>
<path d="M7.67805 12.5349C11.1333 12.5349 13.9342 10.0165 13.9342 6.91001C13.9342 3.80348 11.1333 1.28516 7.67805 1.28516C4.22285 1.28516 1.42188 3.80348 1.42188 6.91001C1.42188 10.0165 4.22285 12.5349 7.67805 12.5349Z" fill="#E3C101"/>
<path fill-rule="evenodd" clip-rule="evenodd" d="M7.46333 9.48619H9.00089V4.05078H7.46333L5.92578 4.99244V6.18275L7.38375 5.29754H7.46333V9.48619Z" fill="#FFF2B5"/>
<path d="M9.26562 1.98438C11.6658 2.49956 13.379 4.40337 13.4383 6.62129C13.4978 8.8392 11.8884 10.815 9.51859 11.4334C10.9733 10.4335 11.9378 8.72754 11.9378 6.78946C11.9378 4.74229 10.8626 2.95579 9.26562 1.98438Z" fill="white" fill-opacity="0.2"/>
<path d="M8.35731 13.7514C8.3626 13.7562 8.37311 13.7514 8.3784 13.7514C10.0176 13.5666 11.5249 12.9742 12.6581 11.9981C12.6634 11.9933 12.6792 11.9886 12.674 11.9839L12.5422 11.7327C12.5369 11.7232 12.5264 11.7469 12.5211 11.7517C11.3932 12.6947 9.82257 13.2775 8.21502 13.4529C8.20973 13.4529 8.19922 13.4529 8.19922 13.4576L8.35731 13.7514Z" fill="#B35454"/>
</svg>
