<?xml version="1.0" encoding="UTF-8"?>
<!DOCTYPE svg PUBLIC "-//W3C//DTD SVG 1.1//EN" "http://www.w3.org/Graphics/SVG/1.1/DTD/svg11.dtd">
<!-- Creator: CorelDRAW 2021 (64-Bit) -->
<svg xmlns="http://www.w3.org/2000/svg" xml:space="preserve" width="0.209539in" height="0.213339in" version="1.1" style="shape-rendering:geometricPrecision; text-rendering:geometricPrecision; image-rendering:optimizeQuality; fill-rule:evenodd; clip-rule:evenodd"
viewBox="0 0 6.69 6.81"
 xmlns:xlink="http://www.w3.org/1999/xlink"
 xmlns:xodm="http://www.corel.com/coreldraw/odm/2003">
 <defs>
  <style type="text/css">
   <![CDATA[
    .fil0 {fill:#FEFEFE;fill-rule:nonzero}
    .fil1 {fill:#310ECA;fill-rule:nonzero}
    .fil2 {fill:#71DF0B;fill-rule:nonzero}
   ]]>
  </style>
 </defs>
 <g id="Layer_x0020_1">
  <metadata id="CorelCorpID_0Corel-Layer"/>
  <g id="_2558514112752">
   <path class="fil0" d="M4.35 6.7c1.49,-0.36 2.34,-1.57 2.34,-3.29 0,-2.08 -1.23,-3.41 -3.32,-3.41 -2.11,0 -3.36,1.33 -3.36,3.41 0,1.91 1.07,3.19 2.89,3.38 0.41,0.03 0.92,0.01 1.45,-0.09z"/>
   <path class="fil1" d="M4.35 6.7c1.49,-0.36 2.34,-1.57 2.34,-3.29 0,-2.08 -1.23,-3.41 -3.32,-3.41 -2.11,0 -3.36,1.33 -3.36,3.41 0,1.91 1.07,3.19 2.89,3.38l0 -3.3c0.56,-0.23 1.06,-0.52 1.45,-0.97l0 4.18z"/>
   <path class="fil2" d="M4.35 1.2l0 0.98c-0.71,0.8 -1.74,1.31 -2.9,1.32l0 -1.38c0.77,-0.01 1.46,-0.36 1.91,-0.91l0.98 0z"/>
  </g>
 </g>
</svg>
